<?xml version="1.0" encoding="UTF-8"?>
<svg version="1.1" xmlns="http://www.w3.org/2000/svg" width="60" height="60">
<path d="M0 0 C0.86625 -0.00773438 1.7325 -0.01546875 2.625 -0.0234375 C5.49592568 0.45819806 6.14273642 1.1956094 8 3.375 C10.04159031 5.11742658 12.09726979 6.84144245 14.16015625 8.55859375 C17.10326826 11.46421389 17.96612276 13.49419175 18.125 17.625 C18.08375 18.5325 18.0425 19.44 18 20.375 C18.99 20.705 19.98 21.035 21 21.375 C20.505 22.86 20.505 22.86 20 24.375 C19.01 24.705 18.02 25.035 17 25.375 C16.95101562 26.06207031 16.90203125 26.74914062 16.8515625 27.45703125 C16.77679688 28.35808594 16.70203125 29.25914063 16.625 30.1875 C16.55539063 31.08082031 16.48578125 31.97414063 16.4140625 32.89453125 C16 35.375 16 35.375 14 38.375 C13.83300768 41.50021833 13.83300768 41.50021833 14 44.375 C15.2065625 44.4678125 15.2065625 44.4678125 16.4375 44.5625 C21.15408951 45.6382134 26.50341407 47.87841407 30 51.375 C30 54.345 30 57.315 30 60.375 C10.2 60.375 -9.6 60.375 -30 60.375 C-30 51.375 -30 51.375 -28.42578125 49.47265625 C-27.72839844 49.13105469 -27.03101563 48.78945313 -26.3125 48.4375 C-25.58289063 48.06367187 -24.85328125 47.68984375 -24.1015625 47.3046875 C-23.40804688 46.99789062 -22.71453125 46.69109375 -22 46.375 C-21.071875 45.941875 -20.14375 45.50875 -19.1875 45.0625 C-17 44.375 -17 44.375 -14 44.375 C-13.76571687 39.5852679 -13.76571687 39.5852679 -16 35.375 C-16.2926572 32.79543586 -16.37713309 30.2464713 -16.4609375 27.65234375 C-16.7647524 25.19271627 -16.7647524 25.19271627 -19.0390625 24.06640625 C-20.00972656 23.72416016 -20.00972656 23.72416016 -21 23.375 C-20.67 22.385 -20.34 21.395 -20 20.375 C-19.34 20.375 -18.68 20.375 -18 20.375 C-18.12375 19.075625 -18.12375 19.075625 -18.25 17.75 C-17.89963779 13.02011017 -15.97562764 10.20103704 -12.50390625 6.9921875 C-11.02436576 5.75985203 -9.51296696 4.56605909 -8 3.375 C-7.54753906 2.84003906 -7.09507813 2.30507812 -6.62890625 1.75390625 C-4.39354823 -0.13837524 -2.89316368 -0.02583182 0 0 Z M-2 3.375 C-2.12375 4.344375 -2.2475 5.31375 -2.375 6.3125 C-2.58125 7.323125 -2.7875 8.33375 -3 9.375 C-3.99 9.87 -3.99 9.87 -5 10.375 C-5.33 9.715 -5.66 9.055 -6 8.375 C-6 10.355 -6 12.335 -6 14.375 C-8.64 14.375 -11.28 14.375 -14 14.375 C-14.33 16.355 -14.66 18.335 -15 20.375 C-5.1 20.375 4.8 20.375 15 20.375 C14.67 18.395 14.34 16.415 14 14.375 C11.36 14.375 8.72 14.375 6 14.375 C6 12.395 6 10.415 6 8.375 C5.67 9.035 5.34 9.695 5 10.375 C4.34 10.045 3.68 9.715 3 9.375 C2.375 6.3125 2.375 6.3125 2 3.375 C0.68 3.375 -0.64 3.375 -2 3.375 Z M-11 9.375 C-11.33 10.035 -11.66 10.695 -12 11.375 C-11.01 11.375 -10.02 11.375 -9 11.375 C-9 10.715 -9 10.055 -9 9.375 C-9.66 9.375 -10.32 9.375 -11 9.375 Z M9 9.375 C9 10.035 9 10.695 9 11.375 C9.99 11.045 10.98 10.715 12 10.375 C11.01 10.045 10.02 9.715 9 9.375 Z M-14 24.375 C-13.58227059 32.25325299 -13.58227059 32.25325299 -10.125 37.8125 C-9.61195312 38.45058594 -9.09890625 39.08867188 -8.5703125 39.74609375 C-5.81687958 42.6022667 -4.15962937 43.35668188 -0.1875 43.8125 C4.50682983 43.69169004 6.76529802 41.76015324 10 38.375 C13.82305285 33.62914129 13.23753075 31.23722321 14 24.375 C4.76 24.375 -4.48 24.375 -14 24.375 Z M-9 44.375 C-7.68 46.685 -6.36 48.995 -5 51.375 C-4.34 50.715 -3.68 50.055 -3 49.375 C-3 48.385 -3 47.395 -3 46.375 C-4.98 45.715 -6.96 45.055 -9 44.375 Z M6 45.375 C5.01 45.705 4.02 46.035 3 46.375 C3.33 48.025 3.66 49.675 4 51.375 C5.32 49.725 6.64 48.075 8 46.375 C7.34 46.045 6.68 45.715 6 45.375 Z M-21.25 50.375 C-22.32765625 50.931875 -23.4053125 51.48875 -24.515625 52.0625 C-25.33546875 52.495625 -26.1553125 52.92875 -27 53.375 C-27 54.695 -27 56.015 -27 57.375 C-20.07 57.375 -13.14 57.375 -6 57.375 C-6.97971398 52.47643011 -7.58370372 50.79129628 -11 47.375 C-15.45651288 47.375 -17.35000997 48.34022259 -21.25 50.375 Z M8.0625 50.0625 C5.6476277 53.29057747 5.6476277 53.29057747 6 57.375 C12.93 57.375 19.86 57.375 27 57.375 C26.58616176 52.57744762 26.58616176 52.57744762 24.3984375 51.046875 C15.97351508 46.78335276 15.97351508 46.78335276 8.0625 50.0625 Z M-1 50.375 C-1 51.035 -1 51.695 -1 52.375 C-0.34 52.375 0.32 52.375 1 52.375 C1 51.715 1 51.055 1 50.375 C0.34 50.375 -0.32 50.375 -1 50.375 Z M-3 56.375 C-3 56.705 -3 57.035 -3 57.375 C-1.02 57.375 0.96 57.375 3 57.375 C3 57.045 3 56.715 3 56.375 C1.02 56.375 -0.96 56.375 -3 56.375 Z " fill="#2285db" transform="translate(30,-0.375)"/>
</svg>
