<?xml version="1.0" encoding="UTF-8"?>
<svg version="1.1" xmlns="http://www.w3.org/2000/svg" width="60" height="60">
<path d="M0 0 C0.77794922 -0.02900391 1.55589844 -0.05800781 2.35742188 -0.08789062 C10.07962949 -0.17161765 16.05888151 2.64921498 21.86328125 7.75390625 C28.23329919 14.60468026 30.51281684 20.74862861 30.625 30 C30.65400391 30.77794922 30.68300781 31.55589844 30.71289062 32.35742188 C30.79661765 40.07962949 27.97578502 46.05888151 22.87109375 51.86328125 C16.02031974 58.23329919 9.87637139 60.51281684 0.625 60.625 C-0.15294922 60.65400391 -0.93089844 60.68300781 -1.73242188 60.71289062 C-9.45462949 60.79661765 -15.43388151 57.97578502 -21.23828125 52.87109375 C-27.60829919 46.02031974 -29.88781684 39.87637139 -30 30.625 C-30.02900391 29.84705078 -30.05800781 29.06910156 -30.08789062 28.26757812 C-30.17161765 20.54537051 -27.35078502 14.56611849 -22.24609375 8.76171875 C-15.39531974 2.39170081 -9.25137139 0.11218316 0 0 Z M-20.625 12.1875 C-26.90624194 20.18719493 -27.85814283 27.20444939 -26.6875 37.3125 C-24.08648654 46.199296 -18.22397868 51.49988322 -10.5625 56.25 C-3.25651339 58.90824227 5.72805836 58.49062649 12.75 55.3125 C18.8229308 51.77661595 24.42411031 46.20582575 26.87109375 39.48046875 C28.57670331 31.10335986 28.2738606 22.96117866 23.9296875 15.5 C19.85534369 9.98881031 14.20250751 4.71533036 7.3125 3.3125 C-4.03916001 2.07892522 -12.68122143 3.68103711 -20.625 12.1875 Z " fill="#2285db" transform="translate(29.6875,-0.3125)"/>
<path d="M0 0 C0.66 0 1.32 0 2 0 C3.4662333 2.93246659 2.97087389 5.67766743 2.83984375 8.90625 C2.78848226 11.22255979 2.78848226 11.22255979 5 13 C5.1875 16.0625 5.1875 16.0625 5 19 C4 20 4 20 0.9375 20.0625 C-0.031875 20.041875 -1.00125 20.02125 -2 20 C-2.33 19.34 -2.66 18.68 -3 18 C-5.12576782 17.53348793 -5.12576782 17.53348793 -7.5625 17.375 C-8.38878906 17.30023437 -9.21507812 17.22546875 -10.06640625 17.1484375 C-10.70449219 17.09945313 -11.34257812 17.05046875 -12 17 C-11.505 15.515 -11.505 15.515 -11 14 C-9.72125 13.87625 -8.4425 13.7525 -7.125 13.625 C-3.65209064 13.30957601 -3.65209064 13.30957601 -1 11 C-0.79503927 8.85573717 -0.79503927 8.85573717 -0.9375 6.5 C-1.09818731 2.19637462 -1.09818731 2.19637462 0 0 Z M0 15 C0 15.66 0 16.32 0 17 C0.66 17 1.32 17 2 17 C2 16.34 2 15.68 2 15 C1.34 15 0.68 15 0 15 Z " fill="#2285db" transform="translate(29,14)"/>
<path d="M0 0 C0.99 0.33 1.98 0.66 3 1 C3 1.99 3 2.98 3 4 C1.68 3.67 0.36 3.34 -1 3 C-0.67 2.01 -0.34 1.02 0 0 Z " fill="#2285db" transform="translate(44,43)"/>
<path d="M0 0 C0.99 0.33 1.98 0.66 3 1 C2.67 1.99 2.34 2.98 2 4 C1.01 4 0.02 4 -1 4 C-0.67 2.68 -0.34 1.36 0 0 Z " fill="#2285db" transform="translate(14,43)"/>
<path d="M0 0 C0.99 0.33 1.98 0.66 3 1 C2.67 1.99 2.34 2.98 2 4 C1.01 3.67 0.02 3.34 -1 3 C-0.67 2.01 -0.34 1.02 0 0 Z " fill="#2285db" transform="translate(29,49)"/>
<path d="M0 0 C1.98 0.495 1.98 0.495 4 1 C3.67 1.66 3.34 2.32 3 3 C1.68 3 0.36 3 -1 3 C-0.67 2.01 -0.34 1.02 0 0 Z " fill="#2285db" transform="translate(50,28)"/>
<path d="M0 0 C1.98 0.495 1.98 0.495 4 1 C4 1.66 4 2.32 4 3 C2.35 2.67 0.7 2.34 -1 2 C-0.67 1.34 -0.34 0.68 0 0 Z " fill="#2285db" transform="translate(7,28)"/>
<path d="M0 0 C0.99 0 1.98 0 3 0 C3 0.99 3 1.98 3 3 C2.01 3.33 1.02 3.66 0 4 C0 2.68 0 1.36 0 0 Z " fill="#2285db" transform="translate(44,13)"/>
<path d="M0 0 C1.32 0.33 2.64 0.66 4 1 C3.67 1.99 3.34 2.98 3 4 C2.01 3.67 1.02 3.34 0 3 C0 2.01 0 1.02 0 0 Z " fill="#2285db" transform="translate(13,13)"/>
<path d="M0 0 C0.99 0.33 1.98 0.66 3 1 C2.67 1.99 2.34 2.98 2 4 C1.01 3.67 0.02 3.34 -1 3 C-0.67 2.01 -0.34 1.02 0 0 Z " fill="#2285db" transform="translate(29,6)"/>
</svg>
