<?xml version="1.0" encoding="UTF-8"?>
<svg version="1.1" xmlns="http://www.w3.org/2000/svg" width="60" height="60">
<path d="M0 0 C0.99 0 1.98 0 3 0 C3 0.99 3 1.98 3 3 C4.9914056 3.38133299 6.99279077 3.71325582 9 4 C9.33 3.67 9.66 3.34 10 3 C16.93 3 23.86 3 31 3 C31.33 20.82 31.66 38.64 32 57 C32.99 57.33 33.98 57.66 35 58 C35 58.66 35 59.32 35 60 C15.86 60 -3.28 60 -23 60 C-23 59.34 -23 58.68 -23 58 C-21.515 57.505 -21.515 57.505 -20 57 C-19.67 44.13 -19.34 31.26 -19 18 C-16.03 18 -13.06 18 -10 18 C-10 15.03 -10 12.06 -10 9 C-8.68 9 -7.36 9 -6 9 C-6.020625 8.195625 -6.04125 7.39125 -6.0625 6.5625 C-6 4 -6 4 -5 3 C-3.33382885 2.95936168 -1.66611905 2.957279 0 3 C0 2.01 0 1.02 0 0 Z M-2 7 C-2.33 7.66 -2.66 8.32 -3 9 C-0.36 9 2.28 9 5 9 C5 8.34 5 7.68 5 7 C2.69 7 0.38 7 -2 7 Z M12 7 C12 14.59 12 22.18 12 30 C13.65 30 15.3 30 17 30 C17.66 30.33 18.32 30.66 19 31 C19 30.34 19 29.68 19 29 C20.98 29.33 22.96 29.66 25 30 C24.67 30.99 24.34 31.98 24 33 C23.34 33 22.68 33 22 33 C22.33 34.32 22.66 35.64 23 37 C23.99 36.67 24.98 36.34 26 36 C25.34 37.32 24.68 38.64 24 40 C23.34 39.67 22.68 39.34 22 39 C22 40.65 22 42.3 22 44 C23.98 43.505 23.98 43.505 26 43 C25.67 43.99 25.34 44.98 25 46 C24.01 46 23.02 46 22 46 C22.33 47.32 22.66 48.64 23 50 C23.66 50 24.32 50 25 50 C25 50.99 25 51.98 25 53 C24.01 53 23.02 53 22 53 C22 54.32 22 55.64 22 57 C23.98 57.33 25.96 57.66 28 58 C28 41.17 28 24.34 28 7 C22.72 7 17.44 7 12 7 Z M-7 12 C-7 13.98 -7 15.96 -7 18 C-2.71 18.66 1.58 19.32 6 20 C6 20.66 6 21.32 6 22 C5.01 22.33 4.02 22.66 3 23 C3 23.66 3 24.32 3 25 C4.32 25 5.64 25 7 25 C6.67 25.99 6.34 26.98 6 28 C5.01 28 4.02 28 3 28 C3 28.66 3 29.32 3 30 C4.98 30 6.96 30 9 30 C9 24.06 9 18.12 9 12 C3.72 12 -1.56 12 -7 12 Z M-16 21 C-16 33.21 -16 45.42 -16 58 C-14.02 57.505 -14.02 57.505 -12 57 C-12 55.35 -12 53.7 -12 52 C-9.36 52 -6.72 52 -4 52 C-4 53.98 -4 55.96 -4 58 C-2.02 57.505 -2.02 57.505 0 57 C0 45.12 0 33.24 0 21 C-5.28 21 -10.56 21 -16 21 Z M3 34 C3 41.59 3 49.18 3 57 C3.99 56.67 4.98 56.34 6 56 C6 48.74 6 41.48 6 34 C5.01 34 4.02 34 3 34 Z M7 34 C7 41.59 7 49.18 7 57 C7.99 56.67 8.98 56.34 10 56 C9.67 49.07 9.34 42.14 9 35 C9.99 35 10.98 35 12 35 C12 42.26 12 49.52 12 57 C12.66 56.67 13.32 56.34 14 56 C14 48.74 14 41.48 14 34 C11.69 34 9.38 34 7 34 Z M16 34 C16 41.59 16 49.18 16 57 C16.99 57 17.98 57 19 57 C19 49.41 19 41.82 19 34 C18.01 34 17.02 34 16 34 Z " fill="#2285db" transform="translate(24,0)"/>
<path d="M0 0 C3.63 0 7.26 0 11 0 C11 0.99 11 1.98 11 3 C7.37 3 3.74 3 0 3 C0 2.01 0 1.02 0 0 Z " fill="#2285db" transform="translate(20,14)"/>
<path d="M0 0 C1.4540625 0.0309375 1.4540625 0.0309375 2.9375 0.0625 C2.9375 1.7125 2.9375 3.3625 2.9375 5.0625 C0.9575 5.0625 -1.0225 5.0625 -3.0625 5.0625 C-3.625 3.125 -3.625 3.125 -4.0625 1.0625 C-3.0625 0.0625 -3.0625 0.0625 0 0 Z " fill="#2285db" transform="translate(14.0625,44.9375)"/>
<path d="M0 0 C1.98 0 3.96 0 6 0 C6 1.65 6 3.3 6 5 C2 5 2 5 -1 4 C-0.67 2.68 -0.34 1.36 0 0 Z " fill="#2285db" transform="translate(11,25)"/>
<path d="M0 0 C1.98 0 3.96 0 6 0 C6.33 1.32 6.66 2.64 7 4 C2.25 5 2.25 5 0 5 C0 3.35 0 1.7 0 0 Z " fill="#2285db" transform="translate(43,22)"/>
<path d="M0 0 C4 0 4 0 7 1 C6.67 2.32 6.34 3.64 6 5 C4.02 5 2.04 5 0 5 C0 3.35 0 1.7 0 0 Z " fill="#2285db" transform="translate(43,15)"/>
<path d="M0 0 C1.98 0 3.96 0 6 0 C6.33 1.32 6.66 2.64 7 4 C2.25 5 2.25 5 0 5 C0 3.35 0 1.7 0 0 Z " fill="#2285db" transform="translate(43,9)"/>
<path d="M0 0 C2.31 0 4.62 0 7 0 C7 1.32 7 2.64 7 4 C5.02 4 3.04 4 1 4 C0.67 2.68 0.34 1.36 0 0 Z " fill="#2285db" transform="translate(10,39)"/>
<path d="M0 0 C2.31 0 4.62 0 7 0 C7 1.32 7 2.64 7 4 C4.69 4 2.38 4 0 4 C0 2.68 0 1.36 0 0 Z " fill="#2285db" transform="translate(10,32)"/>
<path d="M0 0 C0.99 0 1.98 0 3 0 C3.33 0.99 3.66 1.98 4 3 C3.67 3.66 3.34 4.32 3 5 C2.01 4.67 1.02 4.34 0 4 C0 2.68 0 1.36 0 0 Z " fill="#2285db" transform="translate(18,25)"/>
<path d="M0 0 C0.99 0.33 1.98 0.66 3 1 C3 2.32 3 3.64 3 5 C2.01 5 1.02 5 0 5 C-0.33 4.01 -0.66 3.02 -1 2 C-0.67 1.34 -0.34 0.68 0 0 Z " fill="#2285db" transform="translate(39,22)"/>
<path d="M0 0 C0.99 0.33 1.98 0.66 3 1 C3 2.32 3 3.64 3 5 C2.01 5 1.02 5 0 5 C-0.33 4.01 -0.66 3.02 -1 2 C-0.67 1.34 -0.34 0.68 0 0 Z " fill="#2285db" transform="translate(39,15)"/>
<path d="M0 0 C0.99 0 1.98 0 3 0 C2.67 1.65 2.34 3.3 2 5 C1.34 5 0.68 5 0 5 C-0.33 4.01 -0.66 3.02 -1 2 C-0.67 1.34 -0.34 0.68 0 0 Z " fill="#2285db" transform="translate(39,9)"/>
<path d="M0 0 C0.66 0 1.32 0 2 0 C2.33 0.99 2.66 1.98 3 3 C2.67 3.66 2.34 4.32 2 5 C1.01 4.67 0.02 4.34 -1 4 C-0.67 2.68 -0.34 1.36 0 0 Z " fill="#2285db" transform="translate(19,45)"/>
<path d="M0 0 C1.32 0.33 2.64 0.66 4 1 C3.67 1.99 3.34 2.98 3 4 C2.01 4 1.02 4 0 4 C0 2.68 0 1.36 0 0 Z " fill="#2285db" transform="translate(18,32)"/>
<path d="M0 0 C1.32 0.33 2.64 0.66 4 1 C3.67 1.99 3.34 2.98 3 4 C2.01 4 1.02 4 0 4 C0 2.68 0 1.36 0 0 Z " fill="#2285db" transform="translate(18,39)"/>
</svg>
