<?xml version="1.0" encoding="UTF-8"?>
<svg version="1.1" xmlns="http://www.w3.org/2000/svg" width="60" height="60">
<path d="M0 0 C5.26163772 1.17134078 8.06211909 4.88286386 11.65625 8.73046875 C12.39230469 9.49359375 13.12835937 10.25671875 13.88671875 11.04296875 C15.69914848 12.92601262 17.49611682 14.82158834 19.28125 16.73046875 C22.32104325 15.38522311 24.26436382 13.93144852 26.48828125 11.47265625 C27.07544922 10.84746094 27.66261719 10.22226563 28.26757812 9.578125 C29.48354923 8.26461611 30.68937572 6.94164161 31.88476562 5.609375 C34.98930035 2.3389491 36.44022559 0.86330838 41.015625 0.140625 C44.19434527 0.71477184 45.52168229 1.01254346 47.71875 3.29296875 C48.21246094 3.76863281 48.70617188 4.24429687 49.21484375 4.734375 C51.00161449 8.07884331 50.93079153 9.97927034 50.28125 13.73046875 C47.95552286 16.90977723 45.16902642 19.50214136 42.28125 22.16796875 C41.518125 22.89951172 40.755 23.63105469 39.96875 24.38476562 C38.08772849 26.18349245 36.19239269 27.96386893 34.28125 29.73046875 C35.63001021 32.77076116 37.1053988 34.75284439 39.5390625 37.0078125 C40.16425781 37.60400391 40.78945313 38.20019531 41.43359375 38.81445312 C42.7509114 40.05221001 44.07387403 41.28398583 45.40234375 42.50976562 C50.10676102 47.02425301 50.10676102 47.02425301 50.94140625 50.40234375 C50.08781773 53.41263227 48.82194688 54.8559585 46.59375 57.04296875 C45.90925781 57.74035156 45.22476563 58.43773437 44.51953125 59.15625 C41.76803983 61.09141761 40.58792362 61.13235582 37.28125 60.73046875 C35.24487305 59.26171875 35.24487305 59.26171875 33.29296875 57.23046875 C32.58720703 56.50859375 31.88144531 55.78671875 31.15429688 55.04296875 C30.43306641 54.27984375 29.71183594 53.51671875 28.96875 52.73046875 C28.22818359 51.96734375 27.48761719 51.20421875 26.72460938 50.41796875 C24.89841844 48.53286843 23.08489241 46.63711306 21.28125 44.73046875 C18.36926929 46.03967954 16.37512334 47.41692343 14.1875 49.734375 C13.63191406 50.30994141 13.07632812 50.88550781 12.50390625 51.47851562 C11.35351676 52.69020705 10.20508292 53.90375811 9.05859375 55.11914062 C8.50300781 55.69341797 7.94742187 56.26769531 7.375 56.859375 C6.87677734 57.3860376 6.37855469 57.9127002 5.86523438 58.45532227 C2.63707654 61.05406894 -0.97753866 60.84548469 -4.96875 60.79296875 C-5.86078125 60.78394531 -6.7528125 60.77492187 -7.671875 60.765625 C-8.34734375 60.75402344 -9.0228125 60.74242187 -9.71875 60.73046875 C-9.77334773 59.16836714 -9.81181101 57.60569786 -9.84375 56.04296875 C-9.86695313 55.17285156 -9.89015625 54.30273438 -9.9140625 53.40625 C-9.40674723 46.45603083 -5.3795993 43.01901793 -0.59375 38.41796875 C0.06496094 37.77279297 0.72367188 37.12761719 1.40234375 36.46289062 C3.02205144 34.87839397 4.64835005 33.30134776 6.28125 31.73046875 C4.93248979 28.69017634 3.4571012 26.70809311 1.0234375 24.453125 C0.39824219 23.85693359 -0.22695312 23.26074219 -0.87109375 22.64648438 C-2.1884114 21.40872749 -3.51137403 20.17695167 -4.83984375 18.95117188 C-9.55624297 14.42518628 -9.55624297 14.42518628 -10.34375 11.05859375 C-9.58161124 8.21962687 -8.52225825 6.63450096 -6.59375 4.41796875 C-6.01367188 3.72058594 -5.43359375 3.02320313 -4.8359375 2.3046875 C-2.71875 0.73046875 -2.71875 0.73046875 0 0 Z M-2.2265625 5.04296875 C-2.76023437 5.59984375 -3.29390625 6.15671875 -3.84375 6.73046875 C-4.38257813 7.28734375 -4.92140625 7.84421875 -5.4765625 8.41796875 C-5.88648438 8.85109375 -6.29640625 9.28421875 -6.71875 9.73046875 C-6.38875 10.39046875 -6.05875 11.05046875 -5.71875 11.73046875 C-4.06875 11.07046875 -2.41875 10.41046875 -0.71875 9.73046875 C-1.04875 10.72046875 -1.37875 11.71046875 -1.71875 12.73046875 C-0.72875 12.73046875 0.26125 12.73046875 1.28125 12.73046875 C1.61125 13.72046875 1.94125 14.71046875 2.28125 15.73046875 C3.27125 15.40046875 4.26125 15.07046875 5.28125 14.73046875 C4.95125 16.05046875 4.62125 17.37046875 4.28125 18.73046875 C6.11409443 19.8556296 6.11409443 19.8556296 8.28125 20.73046875 C9.27125 20.40046875 10.26125 20.07046875 11.28125 19.73046875 C10.95125 21.05046875 10.62125 22.37046875 10.28125 23.73046875 C10.94125 23.73046875 11.60125 23.73046875 12.28125 23.73046875 C12.61125 24.72046875 12.94125 25.71046875 13.28125 26.73046875 C14.60125 25.08046875 15.92125 23.43046875 17.28125 21.73046875 C15.9302235 18.72031581 14.41789313 16.61079409 12.09375 14.27734375 C11.16949219 13.34921875 11.16949219 13.34921875 10.2265625 12.40234375 C9.58460937 11.768125 8.94265625 11.13390625 8.28125 10.48046875 C7.63929687 9.83078125 6.99734375 9.18109375 6.3359375 8.51171875 C5.71976563 7.898125 5.10359375 7.28453125 4.46875 6.65234375 C3.90542969 6.0912793 3.34210937 5.53021484 2.76171875 4.95214844 C0.66270203 3.22004427 -0.17875376 3.26042021 -2.2265625 5.04296875 Z M37.09375 5.73046875 C36.495625 6.39046875 35.8975 7.05046875 35.28125 7.73046875 C36.72378657 11.09638741 38.61389727 13.24093954 41.28125 15.73046875 C43.74925047 14.5787352 45.32908565 13.6826331 47.28125 11.73046875 C47.09069634 8.87216391 46.25269591 7.69620384 44.40625 5.48046875 C41.32196322 2.94046787 40.02865879 3.04712357 37.09375 5.73046875 Z M31.28125 11.73046875 C31.28125 12.72046875 31.28125 13.71046875 31.28125 14.73046875 C32.27125 15.06046875 33.26125 15.39046875 34.28125 15.73046875 C35.46875 17.79296875 35.46875 17.79296875 36.28125 19.73046875 C37.27125 19.73046875 38.26125 19.73046875 39.28125 19.73046875 C37.84047954 16.36867101 36.03374979 14.13890607 33.28125 11.73046875 C32.62125 11.73046875 31.96125 11.73046875 31.28125 11.73046875 Z M25.86386108 16.90734863 C25.31759064 17.4580603 24.77132019 18.00877197 24.20849609 18.57617188 C23.58800385 19.19681519 22.9675116 19.8174585 22.32821655 20.45690918 C21.66045197 21.13499634 20.99268738 21.8130835 20.3046875 22.51171875 C19.61944 23.19979614 18.9341925 23.88787354 18.22817993 24.59680176 C16.0328172 26.80339197 13.84449584 29.01682277 11.65625 31.23046875 C10.17233241 32.72441281 8.68796321 34.21790844 7.203125 35.7109375 C3.5572367 39.37892021 -0.08288852 43.05254827 -3.71875 46.73046875 C-3.38875 47.72046875 -3.05875 48.71046875 -2.71875 49.73046875 C0.13904017 48.43326951 2.19133536 47.06678615 4.39746094 44.84130859 C4.97776062 44.26085785 5.5580603 43.6804071 6.15594482 43.08236694 C6.76963928 42.45834991 7.38333374 41.83433289 8.015625 41.19140625 C8.65365051 40.55055084 9.29167603 39.90969543 9.94903564 39.24942017 C11.98119069 37.20609054 14.00627218 35.15590893 16.03125 33.10546875 C17.4096953 31.71699015 18.78859636 30.32896385 20.16796875 28.94140625 C23.54436894 25.54298178 26.91444288 22.13839621 30.28125 18.73046875 C29.78625 17.24546875 29.78625 17.24546875 29.28125 15.73046875 C27.23065542 15.51753105 27.23065542 15.51753105 25.86386108 16.90734863 Z M30.86386108 21.90734863 C30.31759064 22.4580603 29.77132019 23.00877197 29.20849609 23.57617188 C28.58800385 24.19681519 27.9675116 24.8174585 27.32821655 25.45690918 C26.66045197 26.13499634 25.99268738 26.8130835 25.3046875 27.51171875 C24.61944 28.19979614 23.9341925 28.88787354 23.22817993 29.59680176 C21.0328172 31.80339197 18.84449584 34.01682277 16.65625 36.23046875 C15.17233241 37.72441281 13.68796321 39.21790844 12.203125 40.7109375 C8.5572367 44.37892021 4.91711148 48.05254827 1.28125 51.73046875 C1.61125 52.72046875 1.94125 53.71046875 2.28125 54.73046875 C5.13904017 53.43326951 7.19133536 52.06678615 9.39746094 49.84130859 C9.97776062 49.26085785 10.5580603 48.6804071 11.15594482 48.08236694 C11.76963928 47.45834991 12.38333374 46.83433289 13.015625 46.19140625 C13.65365051 45.55055084 14.29167603 44.90969543 14.94903564 44.24942017 C16.98119069 42.20609054 19.00627218 40.15590893 21.03125 38.10546875 C22.4096953 36.71699015 23.78859636 35.32896385 25.16796875 33.94140625 C28.54436894 30.54298178 31.91444288 27.13839621 35.28125 23.73046875 C34.78625 22.24546875 34.78625 22.24546875 34.28125 20.73046875 C32.23065542 20.51753105 32.23065542 20.51753105 30.86386108 21.90734863 Z M27.65625 35.23046875 C27.2025 35.72546875 26.74875 36.22046875 26.28125 36.73046875 C26.94125 36.73046875 27.60125 36.73046875 28.28125 36.73046875 C27.95125 38.05046875 27.62125 39.37046875 27.28125 40.73046875 C27.94125 40.73046875 28.60125 40.73046875 29.28125 40.73046875 C29.61125 42.05046875 29.94125 43.37046875 30.28125 44.73046875 C30.28125 44.07046875 30.28125 43.41046875 30.28125 42.73046875 C31.60125 42.73046875 32.92125 42.73046875 34.28125 42.73046875 C34.28125 43.72046875 34.28125 44.71046875 34.28125 45.73046875 C32.30125 46.72046875 32.30125 46.72046875 30.28125 47.73046875 C34.77294928 53.26085368 34.77294928 53.26085368 40.28125 57.73046875 C42.59125 55.42046875 44.90125 53.11046875 47.28125 50.73046875 C42.32506506 44.73087646 37.08898381 38.92191426 31.28125 33.73046875 C29.15760519 33.50437538 29.15760519 33.50437538 27.65625 35.23046875 Z M-5.71875 50.73046875 C-6.04875 53.04046875 -6.37875 55.35046875 -6.71875 57.73046875 C-3.25375 57.23546875 -3.25375 57.23546875 0.28125 56.73046875 C-1.36044528 54.70992071 -3.02786778 52.71003817 -4.71875 50.73046875 C-5.04875 50.73046875 -5.37875 50.73046875 -5.71875 50.73046875 Z " fill="#2285db" transform="translate(9.71875,-0.73046875)"/>
<path d="M0 0 C2.5 0.25 2.5 0.25 4.5 2.25 C4.75 4.75 4.75 4.75 4.5 7.25 C2.5 9.25 2.5 9.25 0 9.5 C-2.5 9.25 -2.5 9.25 -4.5 7.25 C-4.75 4.75 -4.75 4.75 -4.5 2.25 C-2.5 0.25 -2.5 0.25 0 0 Z M-0.5 3.25 C-0.5 4.24 -0.5 5.23 -0.5 6.25 C0.16 6.25 0.82 6.25 1.5 6.25 C1.17 5.26 0.84 4.27 0.5 3.25 C0.17 3.25 -0.16 3.25 -0.5 3.25 Z " fill="#2285db" transform="translate(49.5,44.75)"/>
</svg>
