<?xml version="1.0" encoding="UTF-8"?>
<svg version="1.1" xmlns="http://www.w3.org/2000/svg" width="60" height="60">
<path d="M0 0 C2.69297553 1.3100962 4.35409103 2.87645637 6.3125 5.125 C6.9725 3.805 7.6325 2.485 8.3125 1.125 C10.45826637 1.09814062 12.60412645 1.07866912 14.75 1.0625 C15.94496094 1.05089844 17.13992187 1.03929688 18.37109375 1.02734375 C21.3125 1.125 21.3125 1.125 22.3125 2.125 C22.41465972 5.86328918 22.51116365 9.59625469 22.47851562 13.3359375 C22.5035002 17.88535907 22.5035002 17.88535907 24.70166016 21.67773438 C26.22394533 22.8461766 27.76727911 23.98706249 29.3125 25.125 C29.3125 26.445 29.3125 27.765 29.3125 29.125 C27.9925 29.125 26.6725 29.125 25.3125 29.125 C25.32821045 30.37373901 25.32821045 30.37373901 25.34423828 31.64770508 C25.37834442 34.73949156 25.40341076 37.83118208 25.42236328 40.9230957 C25.43735495 42.91819618 25.46276731 44.91320946 25.48828125 46.90820312 C25.49794922 48.78862305 25.49794922 48.78862305 25.5078125 50.70703125 C25.52352295 52.44303589 25.52352295 52.44303589 25.53955078 54.21411133 C25.3125 57.125 25.3125 57.125 23.3125 60.125 C21.26318359 60.50595093 21.26318359 60.50595093 18.7109375 60.51318359 C17.75654785 60.52264008 16.8021582 60.53209656 15.81884766 60.5418396 C14.78550293 60.53576691 13.7521582 60.52969421 12.6875 60.5234375 C11.10074463 60.52774277 11.10074463 60.52774277 9.48193359 60.53213501 C7.24250759 60.53417904 5.00306386 60.52862564 2.76367188 60.51611328 C-0.67358134 60.50006499 -4.10965857 60.51595117 -7.546875 60.53515625 C-9.71875261 60.53317388 -11.89062948 60.52933033 -14.0625 60.5234375 C-15.61251709 60.53254654 -15.61251709 60.53254654 -17.19384766 60.5418396 C-18.1482373 60.53238312 -19.10262695 60.52292664 -20.0859375 60.51318359 C-21.34929932 60.50960342 -21.34929932 60.50960342 -22.63818359 60.50595093 C-23.31445801 60.38023712 -23.99073242 60.25452332 -24.6875 60.125 C-27.07862209 56.53831687 -26.92131027 54.96103431 -26.8828125 50.70703125 C-26.87314453 48.82661133 -26.87314453 48.82661133 -26.86328125 46.90820312 C-26.84652344 45.59787109 -26.82976563 44.28753906 -26.8125 42.9375 C-26.80246639 41.60222013 -26.7933412 40.26693311 -26.78515625 38.93164062 C-26.76155292 35.66257985 -26.72862594 32.39387972 -26.6875 29.125 C-28.0075 29.125 -29.3275 29.125 -30.6875 29.125 C-30.22843742 24.51826675 -28.74400571 22.81846815 -25.25 19.875 C-24.34765625 19.10027344 -23.4453125 18.32554688 -22.515625 17.52734375 C-21.58234375 16.73457031 -20.6490625 15.94179687 -19.6875 15.125 C-17.95343759 13.56793508 -16.22410203 12.00558667 -14.5 10.4375 C-13.67757813 9.70402344 -12.85515625 8.97054688 -12.0078125 8.21484375 C-10.54416802 6.8965781 -9.09851722 5.55778896 -7.6796875 4.19140625 C-3.37505651 0.15697937 -3.37505651 0.15697937 0 0 Z M-3.44140625 5.20703125 C-4.03824219 5.77808594 -4.63507812 6.34914063 -5.25 6.9375 C-5.93707031 7.57816406 -6.62414062 8.21882812 -7.33203125 8.87890625 C-8.10933594 9.62011719 -8.88664062 10.36132812 -9.6875 11.125 C-11.60038176 12.87913639 -13.51717413 14.62901613 -15.4375 16.375 C-16.79101562 17.62023437 -16.79101562 17.62023437 -18.171875 18.890625 C-20.6875 21.125 -20.6875 21.125 -23.015625 22.796875 C-23.84320313 23.45429687 -23.84320313 23.45429687 -24.6875 24.125 C-24.6875 24.785 -24.6875 25.445 -24.6875 26.125 C-24.0275 26.125 -23.3675 26.125 -22.6875 26.125 C-22.6875 36.355 -22.6875 46.585 -22.6875 57.125 C-19.3875 57.125 -16.0875 57.125 -12.6875 57.125 C-12.3575 48.215 -12.0275 39.305 -11.6875 30.125 C-4.4275 30.125 2.8325 30.125 10.3125 30.125 C10.6425 39.035 10.9725 47.945 11.3125 57.125 C14.6125 57.125 17.9125 57.125 21.3125 57.125 C21.3125 46.895 21.3125 36.665 21.3125 26.125 C21.9725 26.125 22.6325 26.125 23.3125 26.125 C21.78818217 22.23536141 19.45220627 20.40310123 16.1875 17.875 C11.79240023 14.39578602 7.85626753 10.78171454 4.06640625 6.65625 C1.50584176 4.42074604 -0.37577539 3.31576232 -3.44140625 5.20703125 Z M11.3125 5.125 C10.80870971 7.41194223 10.80870971 7.41194223 11.3125 10.125 C13.14636125 12.16262361 15.05581791 13.51308422 17.3125 15.125 C17.6425 15.125 17.9725 15.125 18.3125 15.125 C18.3125 11.825 18.3125 8.525 18.3125 5.125 C16.0025 5.125 13.6925 5.125 11.3125 5.125 Z M-8.6875 33.125 C-8.6875 34.775 -8.6875 36.425 -8.6875 38.125 C-6.3775 38.125 -4.0675 38.125 -1.6875 38.125 C-2.0175 36.475 -2.3475 34.825 -2.6875 33.125 C-4.6675 33.125 -6.6475 33.125 -8.6875 33.125 Z M1.3125 33.125 C0.9825 34.775 0.6525 36.425 0.3125 38.125 C2.6225 38.125 4.9325 38.125 7.3125 38.125 C7.3125 36.475 7.3125 34.825 7.3125 33.125 C5.3325 33.125 3.3525 33.125 1.3125 33.125 Z M-8.6875 42.125 C-8.6875 44.105 -8.6875 46.085 -8.6875 48.125 C-6.3775 48.125 -4.0675 48.125 -1.6875 48.125 C-1.6875 46.145 -1.6875 44.165 -1.6875 42.125 C-3.9975 42.125 -6.3075 42.125 -8.6875 42.125 Z M0.3125 42.125 C0.3125 44.105 0.3125 46.085 0.3125 48.125 C2.6225 48.125 4.9325 48.125 7.3125 48.125 C6.9825 47.465 6.6525 46.805 6.3125 46.125 C5.3225 46.455 4.3325 46.785 3.3125 47.125 C3.3125 45.805 3.3125 44.485 3.3125 43.125 C4.6325 43.455 5.9525 43.785 7.3125 44.125 C7.3125 43.465 7.3125 42.805 7.3125 42.125 C5.0025 42.125 2.6925 42.125 0.3125 42.125 Z M-8.6875 52.125 C-8.6875 53.775 -8.6875 55.425 -8.6875 57.125 C-6.7075 57.125 -4.7275 57.125 -2.6875 57.125 C-2.3575 55.475 -2.0275 53.825 -1.6875 52.125 C-3.9975 52.125 -6.3075 52.125 -8.6875 52.125 Z M0.3125 52.125 C0.6425 53.775 0.9725 55.425 1.3125 57.125 C3.2925 57.125 5.2725 57.125 7.3125 57.125 C7.3125 55.475 7.3125 53.825 7.3125 52.125 C5.0025 52.125 2.6925 52.125 0.3125 52.125 Z " fill="#2285db" transform="translate(30.6875,-0.125)"/>
<path d="M0 0 C3.65316671 1.24976756 4.78065836 1.67098753 7 5 C7.1953125 8.35546875 7.1953125 8.35546875 7.125 12.1875 C7.10695313 13.45980469 7.08890625 14.73210938 7.0703125 16.04296875 C7.03550781 17.50669922 7.03550781 17.50669922 7 19 C3.04 19 -0.92 19 -5 19 C-5.76681614 6.40717489 -5.76681614 6.40717489 -3.88671875 2.95703125 C-2.5 1.625 -2.5 1.625 0 0 Z M-2 15 C-1.34 15.66 -0.68 16.32 0 17 C0 16.34 0 15.68 0 15 C-0.66 15 -1.32 15 -2 15 Z M2 15 C2.33 15.66 2.66 16.32 3 17 C3.33 16.34 3.66 15.68 4 15 C3.34 15 2.68 15 2 15 Z " fill="#2285db" transform="translate(29,8)"/>
</svg>
