<?xml version="1.0" encoding="UTF-8"?>
<svg version="1.1" xmlns="http://www.w3.org/2000/svg" width="60" height="60">
<path d="M0 0 C3.33303003 -0.1174875 6.66551837 -0.18767324 10 -0.25 C10.93457031 -0.28351562 11.86914062 -0.31703125 12.83203125 -0.3515625 C20.24009898 -0.45517184 25.37204712 0.97444974 31.09375 5.74609375 C34.91621282 10.34366709 34.91621282 10.34366709 35.375 13.9375 C35.25125 14.618125 35.1275 15.29875 35 16 C35.33 15.67 35.66 15.34 36 15 C40.92373709 14.06800691 45.18517745 14.10946476 49.73046875 16.33984375 C53.26440867 19.17710871 55.61780209 21.68311035 56.37792969 26.29101562 C56.76797724 31.8895987 56.46025527 37.41443297 56 43 C54.87335937 43.12503906 53.74671875 43.25007813 52.5859375 43.37890625 C48.96088029 43.57292736 48.96088029 43.57292736 47.625 45.9375 C47.41875 46.618125 47.2125 47.29875 47 48 C46.505 48.99 46.505 48.99 46 50 C40.67988107 50.34886026 40.67988107 50.34886026 38 50 C36 48.125 36 48.125 35 46 C35 45.34 35 44.68 35 44 C29.06 44 23.12 44 17 44 C16.34 45.32 15.68 46.64 15 48 C14.67 48.66 14.34 49.32 14 50 C8.67988107 50.34886026 8.67988107 50.34886026 6 50 C4 48.125 4 48.125 3 46 C3 45.34 3 44.68 3 44 C2.195625 43.855625 1.39125 43.71125 0.5625 43.5625 C-2 43 -2 43 -3 42 C-3.04092937 39.66702567 -3.04241723 37.33294775 -3 35 C-1.68 35 -0.36 35 1 35 C0.93981983 32.74926172 0.85098794 30.49927675 0.75 28.25 C0.70359375 26.99703125 0.6571875 25.7440625 0.609375 24.453125 C-0.08709078 20.50648559 -1.0998788 19.5975495 -4 17 C-4.68741078 11.93034552 -4.11802882 8.84885955 -1.96875 4.23046875 C-1.60201172 3.43406982 -1.23527344 2.6376709 -0.85742188 1.81713867 C-0.57447266 1.21748291 -0.29152344 0.61782715 0 0 Z M2 4 C1.484375 5.216875 0.96875 6.43375 0.4375 7.6875 C0.14746094 8.37199219 -0.14257812 9.05648438 -0.44140625 9.76171875 C-1.15294206 12.61283776 -1.00484766 14.23666894 0 17 C2.04564138 18.67220162 2.04564138 18.67220162 4.5625 19.8125 C6.7590625 20.8953125 6.7590625 20.8953125 9 22 C10.65 16.06 12.3 10.12 14 4 C10.04 4 6.08 4 2 4 Z M17 4 C16.16169027 6.76941606 15.32917966 9.54035069 14.5 12.3125 C14.26152344 13.09818359 14.02304687 13.88386719 13.77734375 14.69335938 C13.55175781 15.45068359 13.32617188 16.20800781 13.09375 16.98828125 C12.88427734 17.68477783 12.67480469 18.38127441 12.45898438 19.09887695 C11.88265736 21.16007833 11.88265736 21.16007833 12 24 C14.64 24.66 17.28 25.32 20 26 C22.64031672 19.46207289 24.38808348 12.85921925 26 6 C21.545 5.01 21.545 5.01 17 4 Z M28 9 C26.68 14.28 25.36 19.56 24 25 C25.32 24.67 26.64 24.34 28 24 C30.13022329 20.27787699 31.07861555 16.25784887 30.8125 12 C30.18153844 9.81562924 30.18153844 9.81562924 28 9 Z M33 17 C31.16049742 22.40353883 30.49969869 27.28725709 31 33 C31.33 33.66 31.66 34.32 32 35 C32.66 35 33.32 35 34 35 C34 29.06 34 23.12 34 17 C33.67 17 33.34 17 33 17 Z M38 19 C38 24.28 38 29.56 38 35 C39.44375 35.268125 40.8875 35.53625 42.375 35.8125 C44.8359375 36.26953125 44.8359375 36.26953125 47 37 C47.66 37.99 48.32 38.98 49 40 C50.32 40 51.64 40 53 40 C53.33 37.36 53.66 34.72 54 32 C52.84371094 31.90912109 52.84371094 31.90912109 51.6640625 31.81640625 C50.66117188 31.73261719 49.65828125 31.64882813 48.625 31.5625 C47.62726562 31.48128906 46.62953125 31.40007813 45.6015625 31.31640625 C43 31 43 31 41 30 C41 26.37 41 22.74 41 19 C40.01 19 39.02 19 38 19 Z M43 19 C43.33 21.97 43.66 24.94 44 28 C46.97 28 49.94 28 53 28 C51.23105136 24.46210272 49.69711371 21.85576745 47 19 C45.68 19 44.36 19 43 19 Z M9 26 C9 27.65 9 29.3 9 31 C14.445 30.505 14.445 30.505 20 30 C17.30669878 28.20446585 15.8539399 27.57303539 12.8125 26.875 C11.554375 26.58625 10.29625 26.2975 9 26 Z M26 28 C27 30 27 30 27 30 Z M11 34 C11 34.33 11 34.66 11 35 C16.61 35 22.22 35 28 35 C28 34.67 28 34.34 28 34 C22.39 34 16.78 34 11 34 Z M0 38 C0.33 38.66 0.66 39.32 1 40 C1.66 40 2.32 40 3 40 C3 39.34 3 38.68 3 38 C2.01 38 1.02 38 0 38 Z M8 38 C12 39 12 39 12 39 Z M16 38 C16.33 38.66 16.66 39.32 17 40 C17.66 40 18.32 40 19 40 C19 39.34 19 38.68 19 38 C18.01 38 17.02 38 16 38 Z M23 38 C23 38.66 23 39.32 23 40 C24.65 40 26.3 40 28 40 C28 39.34 28 38.68 28 38 C26.35 38 24.7 38 23 38 Z M32 38 C32 38.66 32 39.32 32 40 C33.32 39.67 34.64 39.34 36 39 C34.68 38.67 33.36 38.34 32 38 Z M40 38 C44 39 44 39 44 39 Z M6 40 C7 42 7 42 7 42 Z M13 40 C13 41.65 13 43.3 13 45 C13.33 45 13.66 45 14 45 C14 43.35 14 41.7 14 40 C13.67 40 13.34 40 13 40 Z M38 40 C38 41.65 38 43.3 38 45 C38.33 45 38.66 45 39 45 C39 43.35 39 41.7 39 40 C38.67 40 38.34 40 38 40 Z M45 40 C45 41.65 45 43.3 45 45 C45.33 45 45.66 45 46 45 C46 43.35 46 41.7 46 40 C45.67 40 45.34 40 45 40 Z M6 43 C7 45 7 45 7 45 Z " fill="#2285db" transform="translate(4,5)"/>
</svg>
