<?xml version="1.0" encoding="UTF-8"?>
<svg version="1.1" xmlns="http://www.w3.org/2000/svg" width="60" height="60">
<path d="M0 0 C0.77794922 -0.02900391 1.55589844 -0.05800781 2.35742188 -0.08789062 C10.07962949 -0.17161765 16.05888151 2.64921498 21.86328125 7.75390625 C28.23329919 14.60468026 30.51281684 20.74862861 30.625 30 C30.65400391 30.77794922 30.68300781 31.55589844 30.71289062 32.35742188 C30.79661765 40.07962949 27.97578502 46.05888151 22.87109375 51.86328125 C16.02031974 58.23329919 9.87637139 60.51281684 0.625 60.625 C-0.15294922 60.65400391 -0.93089844 60.68300781 -1.73242188 60.71289062 C-9.45462949 60.79661765 -15.43388151 57.97578502 -21.23828125 52.87109375 C-27.60829919 46.02031974 -29.88781684 39.87637139 -30 30.625 C-30.02900391 29.84705078 -30.05800781 29.06910156 -30.08789062 28.26757812 C-30.17161765 20.54537051 -27.35078502 14.56611849 -22.24609375 8.76171875 C-15.39531974 2.39170081 -9.25137139 0.11218316 0 0 Z M-2.9921875 4.59765625 C-6.56881269 8.64582655 -8.8241673 12.24009432 -10.6875 17.3125 C-7.06776598 18.62876692 -4.59182869 19.3125 -0.6875 19.3125 C-0.6875 14.0325 -0.6875 8.7525 -0.6875 3.3125 C-1.87398817 3.19554097 -1.87398817 3.19554097 -2.9921875 4.59765625 Z M1.3125 3.3125 C1.3125 8.5925 1.3125 13.8725 1.3125 19.3125 C2.776875 19.18875 4.24125 19.065 5.75 18.9375 C6.57371094 18.86789063 7.39742187 18.79828125 8.24609375 18.7265625 C8.92800781 18.58992188 9.60992187 18.45328125 10.3125 18.3125 C10.6425 17.6525 10.9725 16.9925 11.3125 16.3125 C10.23468809 13.92502136 10.23468809 13.92502136 8.625 11.375 C8.10550781 10.49972656 7.58601563 9.62445312 7.05078125 8.72265625 C5.22124613 5.93377753 5.22124613 5.93377753 1.3125 3.3125 Z M-18.625 9.9375 C-19.89131583 11.28664836 -19.89131583 11.28664836 -19.6875 13.3125 C-17.7075 14.3025 -15.7275 15.2925 -13.6875 16.3125 C-12.70743141 14.68804381 -11.72847364 13.06291739 -10.75 11.4375 C-10.20472656 10.53257813 -9.65945312 9.62765625 -9.09765625 8.6953125 C-8.24851983 7.26048364 -7.43312276 5.80374552 -6.6875 4.3125 C-11.3980713 4.3125 -15.09952436 6.98064946 -18.625 9.9375 Z M7.3125 4.3125 C9.6225 8.2725 11.9325 12.2325 14.3125 16.3125 C15.9625 15.3225 17.6125 14.3325 19.3125 13.3125 C19.3125 12.3225 19.3125 11.3325 19.3125 10.3125 C14.93468301 5.93468301 13.85500693 5.40291782 7.3125 4.3125 Z M-22.6875 15.3125 C-25.40141278 20.08607872 -27.25311146 23.65638537 -26.6875 29.3125 C-23.0575 29.3125 -19.4275 29.3125 -15.6875 29.3125 C-15.3575 26.0125 -15.0275 22.7125 -14.6875 19.3125 C-18.35730204 16.40078211 -18.35730204 16.40078211 -22.6875 15.3125 Z M15.3125 19.3125 C15.6425 22.6125 15.9725 25.9125 16.3125 29.3125 C19.9425 29.3125 23.5725 29.3125 27.3125 29.3125 C26.8651066 21.79483346 26.8651066 21.79483346 23.3125 15.3125 C20.03091516 15.3125 17.93368892 17.48906423 15.3125 19.3125 Z M-11.6875 21.3125 C-13.10327477 22.49674326 -13.10327477 22.49674326 -12.75 25.875 C-12.729375 27.009375 -12.70875 28.14375 -12.6875 29.3125 C-8.7275 29.3125 -4.7675 29.3125 -0.6875 29.3125 C-0.6875 27.0025 -0.6875 24.6925 -0.6875 22.3125 C-2.49931405 22.11848367 -4.31198532 21.93245625 -6.125 21.75 C-7.13433594 21.64558594 -8.14367187 21.54117187 -9.18359375 21.43359375 C-10.00988281 21.39363281 -10.83617188 21.35367187 -11.6875 21.3125 Z M1.3125 22.3125 C1.3125 24.6225 1.3125 26.9325 1.3125 29.3125 C5.2725 29.3125 9.2325 29.3125 13.3125 29.3125 C13.3125 27.0025 13.3125 24.6925 13.3125 22.3125 C9.05683453 21.15186396 5.6289922 21.55076608 1.3125 22.3125 Z M-26.6875 32.3125 C-26.22078373 37.72640868 -25.44452189 41.51767932 -22.6875 46.3125 C-18.7275 43.8375 -18.7275 43.8375 -14.6875 41.3125 C-15.0175 38.3425 -15.3475 35.3725 -15.6875 32.3125 C-19.3175 32.3125 -22.9475 32.3125 -26.6875 32.3125 Z M-12.6875 32.3125 C-12.6875 34.2925 -12.6875 36.2725 -12.6875 38.3125 C-12.0275 38.9725 -11.3675 39.6325 -10.6875 40.3125 C-8.22700765 40.11264339 -8.22700765 40.11264339 -5.5625 39.4375 C-4.65242188 39.23382813 -3.74234375 39.03015625 -2.8046875 38.8203125 C-1.75667969 38.56894531 -1.75667969 38.56894531 -0.6875 38.3125 C-0.6875 36.3325 -0.6875 34.3525 -0.6875 32.3125 C-4.6475 32.3125 -8.6075 32.3125 -12.6875 32.3125 Z M1.3125 32.3125 C1.3125 34.2925 1.3125 36.2725 1.3125 38.3125 C4.9425 38.9725 8.5725 39.6325 12.3125 40.3125 C13.7597136 37.79075081 13.7597136 37.79075081 13.3125 32.3125 C9.3525 32.3125 5.3925 32.3125 1.3125 32.3125 Z M16.3125 32.3125 C15.9825 35.2825 15.6525 38.2525 15.3125 41.3125 C17.9525 42.9625 20.5925 44.6125 23.3125 46.3125 C23.9725 44.930625 24.6325 43.54875 25.3125 42.125 C25.869375 40.95904297 25.869375 40.95904297 26.4375 39.76953125 C27.59206864 36.96215872 27.59206864 36.96215872 27.3125 32.3125 C23.6825 32.3125 20.0525 32.3125 16.3125 32.3125 Z M1.3125 41.3125 C1.3125 46.5925 1.3125 51.8725 1.3125 57.3125 C5.70469261 53.79874591 6.96262285 52.75794752 9.125 48.0625 C9.54394531 47.17046875 9.96289062 46.2784375 10.39453125 45.359375 C10.69746094 44.68390625 11.00039063 44.0084375 11.3125 43.3125 C6.39667923 41.79296291 6.39667923 41.79296291 1.3125 41.3125 Z M-10.6875 43.3125 C-9.97418611 44.9030382 -9.24102693 46.48468266 -8.5 48.0625 C-8.09394531 48.94421875 -7.68789063 49.8259375 -7.26953125 50.734375 C-5.52300862 53.90715611 -5.52300862 53.90715611 -0.6875 57.3125 C-0.6875 52.0325 -0.6875 46.7525 -0.6875 41.3125 C-4.29779169 41.3125 -7.24556676 42.27342582 -10.6875 43.3125 Z M14.3125 44.3125 C13.27326196 45.91269039 12.28113662 47.54361189 11.3125 49.1875 C10.77625 50.09242187 10.24 50.99734375 9.6875 51.9296875 C8.85700096 53.36890459 8.05561163 54.82627674 7.3125 56.3125 C13.28281739 56.02126501 16.207034 53.28435616 20.3125 49.3125 C18.6670622 47.62487149 16.99961423 45.9584651 15.3125 44.3125 C14.9825 44.3125 14.6525 44.3125 14.3125 44.3125 Z M-14.6875 44.3125 C-16.3375 45.9625 -17.9875 47.6125 -19.6875 49.3125 C-15.23581603 53.61534347 -11.79169901 56.0667451 -5.6875 57.3125 C-6.8092963 55.5188257 -7.93504483 53.7276227 -9.0625 51.9375 C-9.68898438 50.93976562 -10.31546875 49.94203125 -10.9609375 48.9140625 C-12.58019712 46.2876981 -12.58019712 46.2876981 -14.6875 44.3125 Z " fill="#2285db" transform="translate(29.6875,-0.3125)"/>
</svg>
