<?xml version="1.0" encoding="UTF-8"?>
<svg version="1.1" xmlns="http://www.w3.org/2000/svg" width="60" height="60">
<path d="M0 0 C0 2.64 0 5.28 0 8 C0.66 8 1.32 8 2 8 C2 5.36 2 2.72 2 0 C5.16937172 0.28172193 7.35417981 0.48334385 9.875 2.5 C11.5830927 6.29576155 11.7166947 9.91106814 11 14 C9 16.375 9 16.375 7 18 C7 18.99 7 19.98 7 21 C8.03125 20.71125 9.0625 20.4225 10.125 20.125 C14 20 14 20 15.80078125 21.26953125 C17.27752947 22.77447514 18.64694774 24.38293754 20 26 C19.34 27.98 18.68 29.96 18 32 C19.65 32.33 21.3 32.66 23 33 C23 36.63 23 40.26 23 44 C21.35 44.66 19.7 45.32 18 46 C18.66 47.65 19.32 49.3 20 51 C17.69 53.31 15.38 55.62 13 58 C12.01 57.34 11.02 56.68 10 56 C9.01 56 8.02 56 7 56 C6.67 57.32 6.34 58.64 6 60 C2.7 60 -0.6 60 -4 60 C-4.33 58.68 -4.66 57.36 -5 56 C-5.8971875 56.2475 -5.8971875 56.2475 -6.8125 56.5 C-9 57 -9 57 -12 57 C-13.60546875 55.6875 -13.60546875 55.6875 -15.1875 54 C-15.71730469 53.443125 -16.24710938 52.88625 -16.79296875 52.3125 C-17.19128906 51.879375 -17.58960938 51.44625 -18 51 C-17.34 49.35 -16.68 47.7 -16 46 C-17.65 45.34 -19.3 44.68 -21 44 C-21 40.37 -21 36.74 -21 33 C-18.525 32.505 -18.525 32.505 -16 32 C-16.66 30.02 -17.32 28.04 -18 26 C-14.38860104 21.68393782 -14.38860104 21.68393782 -12 20 C-8.125 20.125 -8.125 20.125 -5 21 C-5.41689455 18.58201162 -5.6564047 17.30985726 -7.51171875 15.63671875 C-9.88468093 13.02708318 -9.53255683 10.62286682 -9.421875 7.23046875 C-8.39707535 1.81231506 -5.147077 0 0 0 Z M-4 4 C-6.56687367 7.8503105 -5.83288724 9.58569763 -5 14 C-3.02 14.495 -3.02 14.495 -1 15 C-1 25.56 -1 36.12 -1 47 C-0.67 47 -0.34 47 0 47 C0 44.69 0 42.38 0 40 C0.66 40 1.32 40 2 40 C2 42.31 2 44.62 2 47 C2.33 47 2.66 47 3 47 C3 42.38 3 37.76 3 33 C3.99 33 4.98 33 6 33 C6 36.96 6 40.92 6 45 C7.485 44.505 7.485 44.505 9 44 C10.29616272 37.71148966 10.29616272 37.71148966 8 32 C6.35 32 4.7 32 3 32 C3 26.39 3 20.78 3 15 C4.32 14.67 5.64 14.34 7 14 C7.76522801 10.64541845 7.76522801 10.64541845 8 7 C6.70735301 5.03568595 6.70735301 5.03568595 5 4 C4.67 5.98 4.34 7.96 4 10 C2.02 10 0.04 10 -2 10 C-2.33 8.02 -2.66 6.04 -3 4 C-3.33 4 -3.66 4 -4 4 Z M-11 24 C-12.12516085 25.83284443 -12.12516085 25.83284443 -13 28 C-12.67 28.99 -12.34 29.98 -12 31 C-12.6875 33.125 -12.6875 33.125 -14 35 C-16.125 35.75 -16.125 35.75 -18 36 C-18 37.65 -18 39.3 -18 41 C-17.38125 41.04125 -16.7625 41.0825 -16.125 41.125 C-14 42 -14 42 -12.625 44.875 C-12.315625 46.421875 -12.315625 46.421875 -12 48 C-12.66 48.99 -13.32 49.98 -14 51 C-11.21894661 52.74317081 -11.21894661 52.74317081 -8.0625 52.5625 C-7.381875 52.376875 -6.70125 52.19125 -6 52 C-3.25 52.4375 -3.25 52.4375 -1 53 C-1 54.32 -1 55.64 -1 57 C0.32 57 1.64 57 3 57 C3 55.68 3 54.36 3 53 C7.084979 52.45533613 10.8725485 52 15 52 C15.15811388 48.94729537 15.15811388 48.94729537 14 46 C14.91607436 43.25177691 15.60727617 42.23101402 18.125 40.75 C18.74375 40.5025 19.3625 40.255 20 40 C20 38.68 20 37.36 20 36 C19.38125 35.95875 18.7625 35.9175 18.125 35.875 C16 35 16 35 14.75 32.1875 C14 29 14 29 14 25 C13.01 25 12.02 25 11 25 C9.33333333 25 7.66666667 25 6 25 C6 25.99 6 26.98 6 28 C6.78375 28.5775 7.5675 29.155 8.375 29.75 C11.7807333 32.66919998 12.40077148 34.58068968 13 39 C11.81438565 43.37195293 10.61402811 45.46784231 7.1875 48.4375 C3.63300607 50.17989898 1.89318443 50.64886407 -2 50 C-5.96782544 48.05498753 -7.70893709 46.48207294 -10 42.6875 C-11.21054917 38.22359994 -10.89864781 36.19284724 -9 32 C-6.375 29.5625 -6.375 29.5625 -4 28 C-4.33 27.01 -4.66 26.02 -5 25 C-7.97 24.505 -7.97 24.505 -11 24 Z M-6 32 C-8.83022097 35.99560608 -7.76210446 39.42737323 -7 44 C-6.01 44.33 -5.02 44.66 -4 45 C-4 40.71 -4 36.42 -4 32 C-4.66 32 -5.32 32 -6 32 Z " fill="#2285db" transform="translate(29,0)"/>
<path d="M0 0 C2.0625 0.4375 2.0625 0.4375 4 1 C5.125 4.75 5.125 4.75 4 7 C-0.29 6.67 -4.58 6.34 -9 6 C-9.0246519 10.82380802 -9.04283693 15.64757967 -9.05493164 20.47143555 C-9.05997174 22.11369464 -9.06680378 23.75594923 -9.07543945 25.39819336 C-9.08751926 27.75375479 -9.09323139 30.10925709 -9.09765625 32.46484375 C-9.10281754 33.20339096 -9.10797882 33.94193817 -9.11329651 34.7028656 C-9.1134925 36.46898088 -9.06194719 38.23497146 -9 40 C-8.67 40.33 -8.34 40.66 -8 41 C-7.95936168 42.66617115 -7.957279 44.33388095 -8 46 C-11.75 47.125 -11.75 47.125 -14 46 C-13.93129299 40.05475575 -13.84341068 34.11022632 -13.73754883 28.16552734 C-13.70424321 26.14217029 -13.676229 24.11871907 -13.65356445 22.09521484 C-13.62012165 19.19067148 -13.56781231 16.28699558 -13.51171875 13.3828125 C-13.50532883 12.47443634 -13.4989389 11.56606018 -13.49235535 10.63015747 C-13.47256119 9.78943695 -13.45276703 8.94871643 -13.43237305 8.08251953 C-13.42126999 7.34083527 -13.41016693 6.599151 -13.39872742 5.83499146 C-13 4 -13 4 -10 2 C-7.7734375 1.62109375 -7.7734375 1.62109375 -5.375 1.4375 C-2.38885578 1.41022777 -2.38885578 1.41022777 0 0 Z " fill="#2285db" transform="translate(14,7)"/>
<path d="M0 0 C2.93359375 0.171875 2.93359375 0.171875 6.4375 0.75 C7.59121094 0.93046875 8.74492188 1.1109375 9.93359375 1.296875 C13 2 13 2 16 4 C16.39872742 5.83499146 16.39872742 5.83499146 16.43237305 8.08251953 C16.46206429 9.34360031 16.46206429 9.34360031 16.49235535 10.63015747 C16.49874527 11.53853363 16.50513519 12.44690979 16.51171875 13.3828125 C16.53864555 14.77691849 16.53864555 14.77691849 16.56611633 16.19918823 C16.62039848 19.17441233 16.6541722 22.14947443 16.6875 25.125 C16.72065729 27.13934556 16.75514544 29.15366968 16.79101562 31.16796875 C16.87613515 36.11186256 16.94286061 41.05570682 17 46 C13.25 47.125 13.25 47.125 11 46 C10.957279 44.33388095 10.95936168 42.66617115 11 41 C11.495 40.505 11.495 40.505 12 40 C12.08847743 37.47905924 12.11527301 34.98569107 12.09765625 32.46484375 C12.0962413 31.71159317 12.09482635 30.95834259 12.09336853 30.18226624 C12.08775376 27.7673044 12.07519883 25.35243399 12.0625 22.9375 C12.0574869 21.30403779 12.05292366 19.67057414 12.04882812 18.03710938 C12.03777954 14.02470415 12.02050506 10.01236759 12 6 C5.565 6.495 5.565 6.495 -1 7 C-1.33 5.35 -1.66 3.7 -2 2 C-1.34 1.34 -0.68 0.68 0 0 Z " fill="#2285db" transform="translate(43,7)"/>
<path d="M0 0 C0.99 0 1.98 0 3 0 C3 2.31 3 4.62 3 7 C2.01 7 1.02 7 0 7 C0 4.69 0 2.38 0 0 Z " fill="#2285db" transform="translate(52,13)"/>
<path d="M0 0 C0.99 0 1.98 0 3 0 C3 2.31 3 4.62 3 7 C2.01 7 1.02 7 0 7 C0 4.69 0 2.38 0 0 Z " fill="#2285db" transform="translate(5,13)"/>
<path d="M0 0 C0.99 0 1.98 0 3 0 C3 0.99 3 1.98 3 3 C2.01 3 1.02 3 0 3 C0 2.01 0 1.02 0 0 Z " fill="#2285db" transform="translate(52,21)"/>
<path d="M0 0 C0.99 0 1.98 0 3 0 C3 0.99 3 1.98 3 3 C2.01 3 1.02 3 0 3 C0 2.01 0 1.02 0 0 Z " fill="#2285db" transform="translate(5,21)"/>
<path d="M0 0 C0.66 0 1.32 0 2 0 C2 0.99 2 1.98 2 3 C1.34 3 0.68 3 0 3 C0 2.01 0 1.02 0 0 Z " fill="#2285db" transform="translate(29,36)"/>
</svg>
