<?xml version="1.0" encoding="UTF-8"?>
<svg version="1.1" xmlns="http://www.w3.org/2000/svg" width="60" height="60">
<path d="M0 0 C3.96 0 7.92 0 12 0 C12 0.99 12 1.98 12 3 C12.556875 3.13535156 13.11375 3.27070313 13.6875 3.41015625 C21.76104418 5.68765942 27.35525268 9.96570377 31.875 17.0625 C35.57263965 24.29592976 36.16588253 32.97731746 36 41 C31.37802694 43.21854707 28.23175837 44.38281159 23 44 C23 44.66 23 45.32 23 46 C11.78 46 0.56 46 -11 46 C-11 45.34 -11 44.68 -11 44 C-11.60328125 43.95101562 -12.2065625 43.90203125 -12.828125 43.8515625 C-13.62734375 43.77679688 -14.4265625 43.70203125 -15.25 43.625 C-16.03890625 43.55539063 -16.8278125 43.48578125 -17.640625 43.4140625 C-20.085877 42.98492887 -21.84836903 42.21399362 -24 41 C-23.65882932 28.20609964 -22.30366488 18.5358971 -13.23046875 8.91796875 C-9.57624662 5.7757217 -4.94722817 3 0 3 C0 2.01 0 1.02 0 0 Z M3 4 C3 12.58 3 21.16 3 30 C4.98 30 6.96 30 9 30 C9 21.42 9 12.84 9 4 C7.02 4 5.04 4 3 4 Z M-3 7 C-4.56902561 10.13805122 -3.56136446 13.26618588 -3.0625 16.625 C-2.91264648 17.68460938 -2.91264648 17.68460938 -2.75976562 18.765625 C-2.51208041 20.51121607 -2.25676129 22.25572084 -2 24 C-2.99 24 -3.98 24 -5 24 C-5.04898437 23.25234375 -5.09796875 22.5046875 -5.1484375 21.734375 C-5.22320312 20.74953125 -5.29796875 19.7646875 -5.375 18.75 C-5.44460937 17.77546875 -5.51421875 16.8009375 -5.5859375 15.796875 C-5.98465249 13.10366811 -6.63507063 11.33036721 -8 9 C-12.90079385 13.76466069 -16.43947568 17.59868921 -19 24 C-19 27.63 -19 31.26 -19 35 C-7.12 35.33 4.76 35.66 17 36 C16.67 36.66 16.34 37.32 16 38 C4.78 38.33 -6.44 38.66 -18 39 C-10.40907652 42.79546174 -2.56799672 42.18317672 5.75 42.1875 C6.97460938 42.19974609 8.19921875 42.21199219 9.4609375 42.22460938 C16.55651564 42.23600484 23.11515938 41.75908276 30 40 C30 39.67 30 39.34 30 39 C29.195625 38.87625 28.39125 38.7525 27.5625 38.625 C26.2940625 38.315625 26.2940625 38.315625 25 38 C24.505 37.01 24.505 37.01 24 36 C26.31 35.67 28.62 35.34 31 35 C31.48297792 27.70166703 31.29848334 22.10107312 27 16 C24.45484985 13.14446569 22.17889083 11.11926055 19 9 C18.66048381 10.56116819 18.32867456 12.12401338 18 13.6875 C17.7215625 14.99267578 17.7215625 14.99267578 17.4375 16.32421875 C17.01027953 18.93712964 16.92383799 21.35813038 17 24 C16.01 24 15.02 24 14 24 C14.66 18.72 15.32 13.44 16 8 C15.01 7.67 14.02 7.34 13 7 C12.11126403 10.09950623 11.81456218 12.98504367 11.68359375 16.203125 C11.64169922 17.1828125 11.59980469 18.1625 11.55664062 19.171875 C11.51732422 20.18765625 11.47800781 21.2034375 11.4375 22.25 C11.39431641 23.28125 11.35113281 24.3125 11.30664062 25.375 C11.20074413 27.91651588 11.09988519 30.45824077 11 33 C7.7 33 4.4 33 1 33 C0.93941406 31.45828125 0.87882812 29.9165625 0.81640625 28.328125 C0.73198747 26.3020743 0.64734014 24.2760331 0.5625 22.25 C0.52318359 21.23421875 0.48386719 20.2184375 0.44335938 19.171875 C0.40146484 18.1921875 0.35957031 17.2125 0.31640625 16.203125 C0.27974854 15.30239258 0.24309082 14.40166016 0.20532227 13.47363281 C0.01693593 11.20403661 -0.37366501 9.18437113 -1 7 C-1.66 7 -2.32 7 -3 7 Z " fill="#2285db" transform="translate(24,7)"/>
<path d="M0 0 C1.98 0.495 1.98 0.495 4 1 C4 1.99 4 2.98 4 4 C2.35 4 0.7 4 -1 4 C-0.67 2.68 -0.34 1.36 0 0 Z " fill="#2285db" transform="translate(43,42)"/>
<path d="M0 0 C0.99 0 1.98 0 3 0 C3 1.65 3 3.3 3 5 C2.01 5 1.02 5 0 5 C0 3.35 0 1.7 0 0 Z " fill="#2285db" transform="translate(37,32)"/>
<path d="M0 0 C0.99 0 1.98 0 3 0 C3 1.65 3 3.3 3 5 C2.01 5 1.02 5 0 5 C0 3.35 0 1.7 0 0 Z " fill="#2285db" transform="translate(20,32)"/>
</svg>
