<?xml version="1.0" encoding="UTF-8"?>
<svg version="1.1" xmlns="http://www.w3.org/2000/svg" width="60" height="60">
<path d="M0 0 C0.74886475 0.00523682 1.49772949 0.01047363 2.26928711 0.01586914 C3.07817383 0.0190918 3.88706055 0.02231445 4.72045898 0.02563477 C5.5705957 0.03401367 6.42073242 0.04239258 7.29663086 0.05102539 C8.15063477 0.05553711 9.00463867 0.06004883 9.88452148 0.06469727 C12.00108749 0.07652166 14.11761771 0.0944577 16.23413086 0.11352539 C17.45106962 2.54740292 17.55372982 4.53191385 17.79663086 7.23852539 C17.92231445 8.60364258 17.92231445 8.60364258 18.05053711 9.99633789 C18.11112305 10.69500977 18.17170898 11.39368164 18.23413086 12.11352539 C18.62084961 11.54762695 19.00756836 10.98172852 19.40600586 10.39868164 C19.92678711 9.66520508 20.44756836 8.93172852 20.98413086 8.17602539 C21.49459961 7.44512695 22.00506836 6.71422852 22.53100586 5.96118164 C24.23413086 4.11352539 24.23413086 4.11352539 26.04663086 3.11352539 C29.58651297 3.11352539 31.64772902 5.04704583 34.48413086 7.05102539 C35.56178711 7.80254883 36.63944336 8.55407227 37.74975586 9.32836914 C38.56959961 9.9174707 39.38944336 10.50657227 40.23413086 11.11352539 C39.60845982 15.49929715 38.73203821 18.4209667 36.23413086 22.11352539 C37.81194336 21.06165039 37.81194336 21.06165039 39.42163086 19.98852539 C41.21459961 18.79321289 41.21459961 18.79321289 43.23413086 18.11352539 C46.49902406 18.86540961 47.92126774 19.73742399 50.07006836 22.32055664 C50.57795898 23.18036133 51.08584961 24.04016602 51.60913086 24.92602539 C52.39416992 26.20413086 52.39416992 26.20413086 53.19506836 27.50805664 C54.43819821 30.62522811 54.44997466 31.99889575 53.23413086 35.11352539 C50.76144228 37.23073231 48.10113742 38.52074397 45.23413086 40.11352539 C48.86413086 40.77352539 52.49413086 41.43352539 56.23413086 42.11352539 C56.23413086 48.05352539 56.23413086 53.99352539 56.23413086 60.11352539 C36.43413086 60.11352539 16.63413086 60.11352539 -3.76586914 60.11352539 C-3.76586914 39.26869201 -3.76586914 39.26869201 -3.58227539 31.42211914 C-3.56245102 30.53992203 -3.54262665 29.65772491 -3.52220154 28.74879456 C-3.48044886 26.93032243 -3.43757904 25.11187558 -3.39355469 23.29345703 C-3.32702888 20.49463904 -3.26810103 17.69571681 -3.20922852 14.89672852 C-3.16736931 13.11351457 -3.12506934 11.3303109 -3.08227539 9.54711914 C-3.0655629 8.71192245 -3.0488504 7.87672577 -3.03163147 7.01622009 C-2.85294259 0.1834119 -2.85294259 0.1834119 0 0 Z M1.23413086 3.11352539 C1.23413086 14.66352539 1.23413086 26.21352539 1.23413086 38.11352539 C8.53440965 30.8132466 13.62717398 24.26516791 13.7878418 13.77026367 C13.71025108 10.20320664 13.52154334 6.67025485 13.23413086 3.11352539 C9.27413086 3.11352539 5.31413086 3.11352539 1.23413086 3.11352539 Z M25.23413086 7.11352539 C23.54662566 9.45897486 22.06871805 11.75567292 20.60913086 14.23852539 C19.7262482 15.70281055 18.84210631 17.1663371 17.95678711 18.62915039 C17.50835449 19.37487305 17.05992188 20.1205957 16.59790039 20.88891602 C15.28578019 23.02927392 13.92925516 25.13013921 12.54272461 27.22290039 C12.12265137 27.85824707 11.70257812 28.49359375 11.26977539 29.14819336 C10.46493732 30.35914534 9.65484272 31.56662281 8.83911133 32.77026367 C7.91049526 34.18010588 7.06320086 35.64293851 6.23413086 37.11352539 C6.56413086 37.77352539 6.89413086 38.43352539 7.23413086 39.11352539 C25.00941481 30.61160936 25.00941481 30.61160936 36.23413086 15.11352539 C36.23413086 14.12352539 36.23413086 13.13352539 36.23413086 12.11352539 C34.57489548 10.6396305 34.57489548 10.6396305 32.42163086 9.42602539 C31.71393555 8.9890332 31.00624023 8.55204102 30.27709961 8.10180664 C28.16227179 6.89578992 28.16227179 6.89578992 25.23413086 7.11352539 Z M38.71459961 24.01977539 C38.02809326 24.43050293 37.34158691 24.84123047 36.63427734 25.2644043 C35.904104 25.70961426 35.17393066 26.15482422 34.42163086 26.61352539 C32.89606091 27.52837497 31.37001105 28.4424247 29.84350586 29.35571289 C29.07586914 29.816875 28.30823242 30.27803711 27.51733398 30.75317383 C24.09400138 32.79282409 20.636169 34.76992452 17.17163086 36.73852539 C16.0256543 37.39079102 14.87967773 38.04305664 13.69897461 38.71508789 C12.88557617 39.17657227 12.07217773 39.63805664 11.23413086 40.11352539 C11.23413086 40.44352539 11.23413086 40.77352539 11.23413086 41.11352539 C32.14455624 42.42382925 32.14455624 42.42382925 50.23413086 33.11352539 C49.61984711 30.19082796 48.69884389 27.92530209 47.17163086 25.36352539 C46.53225586 24.29102539 45.89288086 23.21852539 45.23413086 22.11352539 C42.07385996 22.11352539 41.31105586 22.44654125 38.71459961 24.01977539 Z M-0.76586914 45.11352539 C-0.43586914 46.43352539 -0.10586914 47.75352539 0.23413086 49.11352539 C1.22413086 47.79352539 2.21413086 46.47352539 3.23413086 45.11352539 C1.91413086 45.11352539 0.59413086 45.11352539 -0.76586914 45.11352539 Z M7.23413086 45.11352539 C8.22413086 45.60852539 8.22413086 45.60852539 9.23413086 46.11352539 C10.74050398 52.25489271 10.74050398 52.25489271 8.79663086 55.55102539 C8.28100586 56.06665039 7.76538086 56.58227539 7.23413086 57.11352539 C9.21413086 57.11352539 11.19413086 57.11352539 13.23413086 57.11352539 C13.23413086 53.15352539 13.23413086 49.19352539 13.23413086 45.11352539 C11.25413086 45.11352539 9.27413086 45.11352539 7.23413086 45.11352539 Z M23.23413086 45.11352539 C23.23413086 49.07352539 23.23413086 53.03352539 23.23413086 57.11352539 C24.22413086 56.78352539 25.21413086 56.45352539 26.23413086 56.11352539 C26.23413086 52.48352539 26.23413086 48.85352539 26.23413086 45.11352539 C25.24413086 45.11352539 24.25413086 45.11352539 23.23413086 45.11352539 Z M36.23413086 45.11352539 C36.23413086 49.07352539 36.23413086 53.03352539 36.23413086 57.11352539 C37.22413086 56.78352539 38.21413086 56.45352539 39.23413086 56.11352539 C39.23413086 52.48352539 39.23413086 48.85352539 39.23413086 45.11352539 C38.24413086 45.11352539 37.25413086 45.11352539 36.23413086 45.11352539 Z M49.23413086 45.11352539 C49.23413086 49.07352539 49.23413086 53.03352539 49.23413086 57.11352539 C50.55413086 57.11352539 51.87413086 57.11352539 53.23413086 57.11352539 C53.23413086 53.15352539 53.23413086 49.19352539 53.23413086 45.11352539 C51.91413086 45.11352539 50.59413086 45.11352539 49.23413086 45.11352539 Z M3.23413086 49.11352539 C3.23413086 50.43352539 3.23413086 51.75352539 3.23413086 53.11352539 C4.55413086 53.11352539 5.87413086 53.11352539 7.23413086 53.11352539 C7.23413086 51.79352539 7.23413086 50.47352539 7.23413086 49.11352539 C5.91413086 49.11352539 4.59413086 49.11352539 3.23413086 49.11352539 Z M16.23413086 49.11352539 C16.23413086 50.43352539 16.23413086 51.75352539 16.23413086 53.11352539 C17.55413086 53.11352539 18.87413086 53.11352539 20.23413086 53.11352539 C20.23413086 51.79352539 20.23413086 50.47352539 20.23413086 49.11352539 C18.91413086 49.11352539 17.59413086 49.11352539 16.23413086 49.11352539 Z M29.23413086 49.11352539 C29.23413086 50.43352539 29.23413086 51.75352539 29.23413086 53.11352539 C30.55413086 53.11352539 31.87413086 53.11352539 33.23413086 53.11352539 C33.23413086 51.79352539 33.23413086 50.47352539 33.23413086 49.11352539 C31.91413086 49.11352539 30.59413086 49.11352539 29.23413086 49.11352539 Z M42.23413086 49.11352539 C41.90413086 50.43352539 41.57413086 51.75352539 41.23413086 53.11352539 C42.88413086 53.11352539 44.53413086 53.11352539 46.23413086 53.11352539 C46.23413086 51.79352539 46.23413086 50.47352539 46.23413086 49.11352539 C44.91413086 49.11352539 43.59413086 49.11352539 42.23413086 49.11352539 Z M-0.76586914 53.11352539 C-0.76586914 54.43352539 -0.76586914 55.75352539 -0.76586914 57.11352539 C0.55413086 56.78352539 1.87413086 56.45352539 3.23413086 56.11352539 C2.24413086 55.78352539 1.25413086 55.45352539 0.23413086 55.11352539 C-0.09586914 54.45352539 -0.42586914 53.79352539 -0.76586914 53.11352539 Z " fill="#2285db" transform="translate(3.765869140625,-0.113525390625)"/>
</svg>
